<svg xmlns="http://www.w3.org/2000/svg" xmlns:xlink="http://www.w3.org/1999/xlink" width="420" height="420" viewBox="0 0 420 420">
  <defs>
    <clipPath id="clip-Cloud">
      <rect width="420" height="420"/>
    </clipPath>
  </defs>
  <g id="Cloud" clip-path="url(#clip-Cloud)">
    <g id="Cloud-2" data-name="Cloud" transform="translate(732.823 561.262) rotate(143)">
      <path id="Path_1" data-name="Path 1" d="M300.576,1197.736c3.292-47.871,10.476-78.247,58.307-88.384s82.09,52.624,82.09,52.624-19.384-59.961,48.546-52.624,37.7,60.492,37.7,60.492,22.832-32.81,70.79-7.867,41.618,85.792,27.957,127.424-39.535,24.106-39.535,24.106-17.589,49.428-46.7,46.741-50.217-31.072-50.217-31.072-11.582,26.955-39.3,22.793-47.443-38.462-47.443-38.462-41.7,24.17-67.716,8.5S297.284,1245.608,300.576,1197.736Z" transform="translate(-262 -640.405)" fill="#dedede"/>
      <path id="Path_2" data-name="Path 2" d="M300.491,1187.711c2.778-40.4,24.233-55.789,46.193-54.082s63.593,60.654,63.593,60.654,9.987-46.629,31.862-45.165,50.977,38.592,50.977,38.592,34.885-35.733,58.39-30.179,14.457,74.161,14.457,74.161l-14.457-8.21s22.878,37.06,20.453,51.2-30.224,10.734-30.224,10.734-14.844,41.714-39.409,39.446-47.567-50.18-47.567-50.18-4.587,46.706-27.98,43.193-52.46-56.643-52.46-56.643-22.766,44.581-44.726,31.358S297.713,1228.111,300.491,1187.711Z" transform="translate(-225 -627)" fill="#fff"/>
    </g>
  </g>
</svg>
