<svg xmlns="http://www.w3.org/2000/svg" xmlns:xlink="http://www.w3.org/1999/xlink" width="720" height="720" viewBox="0 0 720 720">
  <defs>
    <clipPath id="clip-Microservices">
      <rect width="720" height="720"/>
    </clipPath>
  </defs>
  <g id="Microservices" clip-path="url(#clip-Microservices)">
    <path id="Path_1" data-name="Path 1" d="M4804,889l60-39.405L4924,889v61l-60,34-60-34Z" transform="translate(-4767 -557)" fill="#fff"/>
    <path id="Path_2" data-name="Path 2" d="M4804,877.968l43.2-28.374,43.2,28.374v43.923l-43.2,24.482L4804,921.891Z" transform="translate(-4601 -692.372)" fill="#fff"/>
    <text id="API" transform="translate(67 384)" fill="#cf29dd" font-size="60" font-family="DINCondensed-Bold, DIN Condensed" font-weight="700"><tspan x="0" y="0">API</tspan></text>
    <path id="Path_3" data-name="Path 3" d="M4804,877.968l43.2-28.374,43.2,28.374v43.923l-43.2,24.482L4804,921.891Z" transform="translate(-4569 -340.372)" fill="#fff"/>
    <path id="Path_4" data-name="Path 4" d="M4804,877.968l43.2-28.374,43.2,28.374v43.923l-43.2,24.482L4804,921.891Z" transform="translate(-4450 -527.372)" fill="#fff"/>
    <path id="Path_5" data-name="Path 5" d="M4804,877.968l43.2-28.374,43.2,28.374v43.923l-43.2,24.482L4804,921.891Z" transform="translate(-4358 -773.372)" fill="#fff"/>
    <path id="Path_6" data-name="Path 6" d="M4804,877.968l43.2-28.374,43.2,28.374v43.923l-43.2,24.482L4804,921.891Z" transform="translate(-4237 -545.372)" fill="#fff"/>
    <path id="Path_7" data-name="Path 7" d="M4804,877.968l43.2-28.374,43.2,28.374v43.923l-43.2,24.482L4804,921.891Z" transform="translate(-4337 -317.372)" fill="#fff"/>
    <line id="Line_1" data-name="Line 1" x2="102" y2="82" transform="translate(144.5 427.5)" fill="none" stroke="#e2903e" stroke-linecap="round" stroke-width="5"/>
    <line id="Line_2" data-name="Line 2" x1="69" y2="45" transform="translate(144.5 254.5)" fill="none" stroke="#64e23e" stroke-linecap="round" stroke-width="5"/>
    <line id="Line_3" data-name="Line 3" x1="36" y2="137" transform="translate(427.5 177.5)" fill="none" stroke="#3eb6e2" stroke-linecap="round" stroke-width="5"/>
    <line id="Line_4" data-name="Line 4" x1="150" y1="11" transform="translate(179.5 360.5)" fill="none" stroke="#963ee2" stroke-linecap="round" stroke-width="5"/>
    <line id="Line_5" data-name="Line 5" x1="90" y2="11" transform="translate(459.5 359.5)" fill="none" stroke="#e23e3e" stroke-linecap="round" stroke-width="5"/>
    <line id="Line_6" data-name="Line 6" x1="39" y2="124" transform="translate(540.5 408.5)" fill="none" stroke="#3ee2c2" stroke-linecap="round" stroke-width="5"/>
    <line id="Line_7" data-name="Line 7" x1="108" y1="18" transform="translate(338.5 562.5)" fill="none" stroke="#3e51e2" stroke-linecap="round" stroke-width="5"/>
    <line id="Line_8" data-name="Line 8" x1="82" y1="69" transform="translate(278.5 253.5)" fill="none" stroke="#e23e3e" stroke-linecap="round" stroke-width="5"/>
    <line id="Line_9" data-name="Line 9" x1="63" y2="91" transform="translate(307.5 423.5)" fill="none" stroke="#c9e23e" stroke-linecap="round" stroke-width="5"/>
    <text id="Auth" transform="translate(381 381)" fill="#e23e3e" font-size="25" font-family="DINCondensed-Bold, DIN Condensed" font-weight="700"><tspan x="0" y="0">Auth</tspan></text>
    <text id="Users" transform="translate(224 215)" fill="#64e23e" font-size="25" font-family="DINCondensed-Bold, DIN Condensed" font-weight="700"><tspan x="0" y="0">Users</tspan></text>
    <text id="Sites" transform="translate(259 565)" fill="#3e51e2" font-size="25" font-family="DINCondensed-Bold, DIN Condensed" font-weight="700"><tspan x="0" y="0">Sites</tspan></text>
    <text id="Comments" transform="translate(473 590)" fill="#3ee2c2" font-size="23" font-family="DINCondensed-Bold, DIN Condensed" font-weight="700"><tspan x="0" y="0">Comments</tspan></text>
    <text id="Settings" transform="translate(458 134)" fill="#3eb6e2" font-size="25" font-family="DINCondensed-Bold, DIN Condensed" font-weight="700"><tspan x="0" y="0">Settings</tspan></text>
    <text id="Files" transform="translate(592 361)" fill="#e2903e" font-size="25" font-family="DINCondensed-Bold, DIN Condensed" font-weight="700"><tspan x="0" y="0">Files</tspan></text>
  </g>
</svg>
