<svg xmlns="http://www.w3.org/2000/svg" xmlns:xlink="http://www.w3.org/1999/xlink" width="250" height="250" viewBox="0 0 250 250">
  <defs>
    <clipPath id="clip-Moon">
      <rect width="250" height="250"/>
    </clipPath>
  </defs>
  <g id="Moon" clip-path="url(#clip-Moon)">
    <path id="Subtraction_5" data-name="Subtraction 5" d="M-2881.309-891.62a103.453,103.453,0,0,1-20.7-2.086,102.179,102.179,0,0,1-19.276-5.984,102.7,102.7,0,0,1-17.444-9.468,103.418,103.418,0,0,1-15.2-12.539,103.4,103.4,0,0,1-12.539-15.2,102.691,102.691,0,0,1-9.468-17.443,102.185,102.185,0,0,1-5.984-19.276,103.462,103.462,0,0,1-2.086-20.7,103.462,103.462,0,0,1,2.086-20.7,102.193,102.193,0,0,1,5.984-19.276,102.7,102.7,0,0,1,9.468-17.444,103.417,103.417,0,0,1,12.539-15.2,103.458,103.458,0,0,1,15.2-12.539,102.7,102.7,0,0,1,17.444-9.468,102.192,102.192,0,0,1,19.276-5.984,103.452,103.452,0,0,1,20.7-2.086,103.262,103.262,0,0,1,23.179,2.626,102.113,102.113,0,0,1,21.319,7.49,102.838,102.838,0,0,0-23.617,15.727,103.2,103.2,0,0,0-18.39,21.49A102.342,102.342,0,0,0-2895-994.31a102.341,102.341,0,0,0,16.185,55.358,103.194,103.194,0,0,0,18.39,21.49,102.83,102.83,0,0,0,23.617,15.726,102.125,102.125,0,0,1-21.319,7.49A103.263,103.263,0,0,1-2881.309-891.62Z" transform="translate(3132.671 -457.642) rotate(-30)" fill="#fffb95"/>
  </g>
</svg>
