<svg xmlns="http://www.w3.org/2000/svg" xmlns:xlink="http://www.w3.org/1999/xlink" width="420" height="420" viewBox="0 0 420 420">
  <defs>
    <style>
      .cls-1 {
        clip-path: url(#clip-Planet_1);
      }

      .cls-2 {
        fill: #12526f;
      }

      .cls-3 {
        fill: #e3be6a;
      }

      .cls-4 {
        fill: #1e7ca7;
      }
    </style>
    <clipPath id="clip-Planet_1">
      <rect width="420" height="420"/>
    </clipPath>
  </defs>
  <g id="Planet_1" data-name="Planet 1" class="cls-1">
    <circle id="Ellipse_9" data-name="Ellipse 9" class="cls-2" cx="160" cy="160" r="160" transform="matrix(0.966, -0.259, 0.259, 0.966, 14.041, 96.863)"/>
    <path id="Subtraction_2" data-name="Subtraction 2" class="cls-3" d="M-1483-501.627c-26.323,0-51.86-1.19-75.9-3.536-11.557-1.128-22.7-2.524-33.124-4.149-10.327-1.61-20.037-3.459-28.859-5.495a244.573,244.573,0,0,1-23.811-6.66,117.138,117.138,0,0,1-17.979-7.644,42.192,42.192,0,0,1-11.362-8.447c-2.629-2.965-3.962-6.016-3.962-9.069s1.333-6.1,3.962-9.069a42.17,42.17,0,0,1,11.362-8.447,116.983,116.983,0,0,1,17.979-7.644c1.294-.442,2.646-.886,4.018-1.321l-.042.081-2.155,20.194a20.9,20.9,0,0,0-1.772,1.167c-2.224,1.647-3.352,3.342-3.352,5.038s1.128,3.391,3.352,5.038a38.387,38.387,0,0,0,9.615,4.693c8.311,2.977,20.208,5.65,35.36,7.946s32.8,4.1,52.448,5.358c20.334,1.3,41.942,1.965,64.226,1.965s43.891-.661,64.225-1.965c19.647-1.259,37.293-3.062,52.448-5.358s27.048-4.969,35.361-7.946a38.391,38.391,0,0,0,9.615-4.693c2.225-1.648,3.353-3.343,3.353-5.038s-1.128-3.391-3.353-5.038a21.111,21.111,0,0,0-1.875-1.228l-2.153-20.21-.016-.028c1.422.449,2.8.9,4.093,1.345a116.98,116.98,0,0,1,17.979,7.644,42.194,42.194,0,0,1,11.362,8.447c2.629,2.965,3.962,6.016,3.962,9.069s-1.333,6.1-3.962,9.069a42.2,42.2,0,0,1-11.362,8.447,117.055,117.055,0,0,1-17.979,7.644,244.56,244.56,0,0,1-23.811,6.66c-8.825,2.036-18.535,3.885-28.859,5.495-10.425,1.625-21.569,3.021-33.124,4.149C-1431.14-502.816-1456.677-501.627-1483-501.627Z" transform="matrix(0.966, -0.259, 0.259, 0.966, 1783.946, 354.172)"/>
    <circle id="Ellipse_12" data-name="Ellipse 12" class="cls-4" cx="13" cy="13" r="13" transform="matrix(0.966, -0.259, 0.259, 0.966, 107.778, 160.78)"/>
    <circle id="Ellipse_13" data-name="Ellipse 13" class="cls-4" cx="21.5" cy="21.5" r="21.5" transform="matrix(0.966, -0.259, 0.259, 0.966, 242.009, 151.73)"/>
    <circle id="Ellipse_14" data-name="Ellipse 14" class="cls-4" cx="8.5" cy="8.5" r="8.5" transform="matrix(0.966, -0.259, 0.259, 0.966, 176.612, 85.396)"/>
    <circle id="Ellipse_15" data-name="Ellipse 15" class="cls-4" cx="20.5" cy="20.5" r="20.5" transform="matrix(0.966, -0.259, 0.259, 0.966, 151.102, 299.286)"/>
    <circle id="Ellipse_16" data-name="Ellipse 16" class="cls-4" cx="7.5" cy="7.5" r="7.5" transform="matrix(0.966, -0.259, 0.259, 0.966, 288.111, 296.739)"/>
    <circle id="Ellipse_17" data-name="Ellipse 17" class="cls-4" cx="7" cy="7" r="7" transform="matrix(0.966, -0.259, 0.259, 0.966, 171.035, 215.264)"/>
  </g>
</svg>
