<svg xmlns="http://www.w3.org/2000/svg" xmlns:xlink="http://www.w3.org/1999/xlink" width="250" height="250" viewBox="0 0 250 250">
  <defs>
    <style>
      .cls-1 {
        clip-path: url(#clip-Planet_2);
      }

      .cls-2 {
        fill: #de1726;
      }

      .cls-3 {
        fill: #fffb95;
      }

      .cls-4 {
        fill: #eb424f;
      }
    </style>
    <clipPath id="clip-Planet_2">
      <rect width="250" height="250"/>
    </clipPath>
  </defs>
  <g id="Planet_2" data-name="Planet 2" class="cls-1">
    <circle id="Ellipse_18" data-name="Ellipse 18" class="cls-2" cx="70" cy="70" r="70" transform="matrix(0.966, 0.259, -0.259, 0.966, 75.503, 39.268)"/>
    <path id="Subtraction_4" data-name="Subtraction 4" class="cls-3" d="M-1586-989a341.991,341.991,0,0,1-45.932-2.986,220.755,220.755,0,0,1-37.507-8.144,117.361,117.361,0,0,1-14.409-5.624,62.394,62.394,0,0,1-10.879-6.455,28.434,28.434,0,0,1-6.876-7.133A14.21,14.21,0,0,1-1704-1027a14.2,14.2,0,0,1,2.4-7.658,28.434,28.434,0,0,1,6.876-7.133,62.358,62.358,0,0,1,10.879-6.455,117.349,117.349,0,0,1,14.409-5.624,193.81,193.81,0,0,1,21.332-5.45,69.334,69.334,0,0,0-7.543,25.276v1.637c-2.886,1.888-4.35,3.876-4.35,5.908,0,2.363,1.97,4.654,5.854,6.811,3.751,2.084,9.122,3.955,15.965,5.563a184.765,184.765,0,0,0,23.681,3.75c9.183.912,18.94,1.375,29,1.375s19.816-.463,29-1.375a184.758,184.758,0,0,0,23.681-3.75c6.844-1.608,12.216-3.48,15.966-5.563,3.885-2.157,5.854-4.449,5.854-6.811,0-2.235-1.767-4.411-5.251-6.467a69.93,69.93,0,0,0-2.555-13.717,69.724,69.724,0,0,0-5.086-12.637,193.762,193.762,0,0,1,21.331,5.45,117.409,117.409,0,0,1,14.409,5.624,62.309,62.309,0,0,1,10.879,6.455,28.434,28.434,0,0,1,6.876,7.133A14.2,14.2,0,0,1-1468-1027a14.2,14.2,0,0,1-2.4,7.658,28.434,28.434,0,0,1-6.876,7.133,62.28,62.28,0,0,1-10.879,6.455,117.28,117.28,0,0,1-14.409,5.624,220.752,220.752,0,0,1-37.507,8.144A341.985,341.985,0,0,1-1586-989Z" transform="matrix(0.966, 0.259, -0.259, 0.966, 1391.151, 1527.493)"/>
    <circle id="Ellipse_22" data-name="Ellipse 22" class="cls-4" cx="3.5" cy="3.5" r="3.5" transform="matrix(0.966, 0.259, -0.259, 0.966, 86.432, 110.525)"/>
    <circle id="Ellipse_23" data-name="Ellipse 23" class="cls-4" cx="13" cy="13" r="13" transform="matrix(0.966, 0.259, -0.259, 0.966, 122.486, 72.563)"/>
    <circle id="Ellipse_24" data-name="Ellipse 24" class="cls-4" cx="7.5" cy="7.5" r="7.5" transform="matrix(0.966, 0.259, -0.259, 0.966, 148.062, 123.932)"/>
    <circle id="Ellipse_25" data-name="Ellipse 25" class="cls-4" cx="4" cy="4" r="4" transform="matrix(0.966, 0.259, -0.259, 0.966, 114.25, 172.848)"/>
    <circle id="Ellipse_26" data-name="Ellipse 26" class="cls-4" cx="3" cy="3" r="3" transform="matrix(0.966, 0.259, -0.259, 0.966, 178.699, 90.731)"/>
  </g>
</svg>
