<svg xmlns="http://www.w3.org/2000/svg" xmlns:xlink="http://www.w3.org/1999/xlink" width="307" height="523" viewBox="0 0 307 523">
  <defs>
    <filter id="Flame" x="101" y="386" width="102" height="155" filterUnits="userSpaceOnUse">
      <feOffset dy="6" input="SourceAlpha"/>
      <feGaussianBlur stdDeviation="6" result="blur"/>
      <feFlood flood-opacity="0.2"/>
      <feComposite operator="in" in2="blur"/>
      <feComposite in="SourceGraphic"/>
    </filter>
    <filter id="Side_Wings" x="-4" y="268" width="316" height="221.003" filterUnits="userSpaceOnUse">
      <feOffset dy="6" input="SourceAlpha"/>
      <feGaussianBlur stdDeviation="6" result="blur-2"/>
      <feFlood flood-opacity="0.2"/>
      <feComposite operator="in" in2="blur-2"/>
      <feComposite in="SourceGraphic"/>
    </filter>
    <clipPath id="clip-path">
      <rect id="Shadow" width="142" height="197" transform="translate(0 298)" fill="none"/>
    </clipPath>
    <filter id="Pipe" x="99" y="386" width="106" height="52" filterUnits="userSpaceOnUse">
      <feOffset dy="6" input="SourceAlpha"/>
      <feGaussianBlur stdDeviation="6" result="blur-3"/>
      <feFlood flood-opacity="0.2"/>
      <feComposite operator="in" in2="blur-3"/>
      <feComposite in="SourceGraphic"/>
    </filter>
    <filter id="Body" x="54" y="1.898" width="196" height="428.76" filterUnits="userSpaceOnUse">
      <feOffset dy="6" input="SourceAlpha"/>
      <feGaussianBlur stdDeviation="6" result="blur-4"/>
      <feFlood flood-opacity="0.2"/>
      <feComposite operator="in" in2="blur-4"/>
      <feComposite in="SourceGraphic"/>
    </filter>
    <clipPath id="clip-path-2">
      <rect id="Shadow-2" data-name="Shadow" width="80" height="425" transform="translate(0 37)" fill="none"/>
    </clipPath>
    <clipPath id="clip-path-3">
      <rect id="Rectangle_3" data-name="Rectangle 3" width="23" height="223" transform="translate(152 254)" fill="none"/>
    </clipPath>
    <clipPath id="clip-path-4">
      <path id="Body-2" data-name="Body" d="M74.348,392.76h0c-10.164-19.753-18.207-42.378-23.905-67.247a399.027,399.027,0,0,1-7.6-45.815A510.41,510.41,0,0,1,40,224.867a503.93,503.93,0,0,1,3.437-60.02A384.743,384.743,0,0,1,52.5,115.736C59.135,89.811,68.387,66.57,80,46.66A193.1,193.1,0,0,1,94.687,24.9,150.653,150.653,0,0,1,107.5,10.47,82.088,82.088,0,0,1,120,0a82.917,82.917,0,0,1,12.5,10.47A150.65,150.65,0,0,1,145.312,24.9,193.1,193.1,0,0,1,160,46.66c11.612,19.91,20.864,43.151,27.5,69.076a384.741,384.741,0,0,1,9.062,49.111A503.931,503.931,0,0,1,200,224.867a510.394,510.394,0,0,1-2.842,54.817,399.067,399.067,0,0,1-7.6,45.808c-5.7,24.867-13.736,47.491-23.9,67.244a132.428,132.428,0,0,0-21.15-4.718,177.245,177.245,0,0,0-48.986.006,132.259,132.259,0,0,0-21.178,4.735Z" transform="translate(-120 43.898)" fill="#f6f6f6"/>
    </clipPath>
    <clipPath id="clip-path-5">
      <rect id="Shadow-3" data-name="Shadow" width="80" height="100" transform="translate(0 44)" fill="none"/>
    </clipPath>
    <clipPath id="clip-path-7">
      <rect id="Rectangle_4" data-name="Rectangle 4" width="40" height="103" transform="translate(0 115)" fill="none"/>
    </clipPath>
    <clipPath id="clip-Rocket">
      <rect width="307" height="523"/>
    </clipPath>
  </defs>
  <g id="Rocket" clip-path="url(#clip-Rocket)">
    <g transform="matrix(1, 0, 0, 1, 0, 0)" filter="url(#Flame)">
      <path id="Flame-2" data-name="Flame" d="M0,606s33-51.23,33-77S16.689,487,0,487s-33,16.23-33,42S0,606,0,606Z" transform="translate(152 -89)" fill="#faab2d"/>
    </g>
    <g id="Side_Wings-2" data-name="Side Wings" transform="translate(152 -30)">
      <g transform="matrix(1, 0, 0, 1, -152, 30)" filter="url(#Side_Wings)">
        <path id="Side_Wings-3" data-name="Side Wings" d="M7.388,185.47v0a140,140,0,1,1,265.225,0,140.075,140.075,0,0,0-265.223,0Z" transform="translate(14 279.53)" fill="#12526f"/>
      </g>
      <g id="Mask_Group_3" data-name="Mask Group 3" clip-path="url(#clip-path)">
        <path id="Side_Wings-4" data-name="Side Wings" d="M7.388,185.47v0a140,140,0,1,1,265.225,0,140.075,140.075,0,0,0-265.223,0Z" transform="translate(-138 309.533)" fill="#062431"/>
      </g>
    </g>
    <g id="Body-4" data-name="Body" transform="translate(152 -30)">
      <g transform="matrix(1, 0, 0, 1, -152, 30)" filter="url(#Pipe)">
        <rect id="Pipe-2" data-name="Pipe" width="70" height="16" transform="translate(117 398)" fill="#de1726"/>
      </g>
      <g transform="matrix(1, 0, 0, 1, -152, 30)" filter="url(#Body)">
        <path id="Body-5" data-name="Body" d="M74.348,392.76h0c-10.164-19.753-18.207-42.378-23.905-67.247a399.027,399.027,0,0,1-7.6-45.815A510.41,510.41,0,0,1,40,224.867a503.93,503.93,0,0,1,3.437-60.02A384.743,384.743,0,0,1,52.5,115.736C59.135,89.811,68.387,66.57,80,46.66A193.1,193.1,0,0,1,94.687,24.9,150.653,150.653,0,0,1,107.5,10.47,82.088,82.088,0,0,1,120,0a82.917,82.917,0,0,1,12.5,10.47A150.65,150.65,0,0,1,145.312,24.9,193.1,193.1,0,0,1,160,46.66c11.612,19.91,20.864,43.151,27.5,69.076a384.741,384.741,0,0,1,9.062,49.111A503.931,503.931,0,0,1,200,224.867a510.394,510.394,0,0,1-2.842,54.817,399.067,399.067,0,0,1-7.6,45.808c-5.7,24.867-13.736,47.491-23.9,67.244a132.428,132.428,0,0,0-21.15-4.718,177.245,177.245,0,0,0-48.986.006,132.259,132.259,0,0,0-21.178,4.735Z" transform="translate(32 13.9)" fill="#f4f4f4"/>
      </g>
      <g id="Mask_Group_2" data-name="Mask Group 2" clip-path="url(#clip-path-2)">
        <path id="Body-6" data-name="Body" d="M74.348,392.76h0c-10.164-19.753-18.207-42.378-23.905-67.247a399.027,399.027,0,0,1-7.6-45.815A510.41,510.41,0,0,1,40,224.867a503.93,503.93,0,0,1,3.437-60.02A384.743,384.743,0,0,1,52.5,115.736C59.135,89.811,68.387,66.57,80,46.66A193.1,193.1,0,0,1,94.687,24.9,150.653,150.653,0,0,1,107.5,10.47,82.088,82.088,0,0,1,120,0a82.917,82.917,0,0,1,12.5,10.47A150.65,150.65,0,0,1,145.312,24.9,193.1,193.1,0,0,1,160,46.66c11.612,19.91,20.864,43.151,27.5,69.076a384.741,384.741,0,0,1,9.062,49.111A503.931,503.931,0,0,1,200,224.867a510.394,510.394,0,0,1-2.842,54.817,399.067,399.067,0,0,1-7.6,45.808c-5.7,24.867-13.736,47.491-23.9,67.244a132.428,132.428,0,0,0-21.15-4.718,177.245,177.245,0,0,0-48.986.006,132.259,132.259,0,0,0-21.178,4.735Z" transform="translate(-120 43.898)" fill="#e8e8e8"/>
      </g>
    </g>
    <g id="Center_Wing" data-name="Center Wing">
      <path id="Center_Wing-2" data-name="Center Wing" d="M240.915,335s-16,43.75-16,90,16,95,16,95,16-48.75,16-95S240.915,335,240.915,335Z" transform="translate(-88.915 -54.995)" fill="#12526f"/>
      <g id="Mask_Group_4" data-name="Mask Group 4" clip-path="url(#clip-path-3)">
        <path id="Center_Wing-3" data-name="Center Wing" d="M240.915,335s-16,43.75-16,90,16,95,16,95,16-48.75,16-95S240.915,335,240.915,335Z" transform="translate(-88.915 -54.995)" fill="#062431"/>
      </g>
    </g>
    <g id="Nose" transform="translate(152 -30)">
      <g id="Nose-2" data-name="Nose" opacity="0.996" clip-path="url(#clip-path-4)">
        <rect id="Nose_Top" data-name="Nose Top" width="160" height="93" transform="translate(-80 30)" fill="#f23c24"/>
        <path id="Nose_Bottom" data-name="Nose Bottom" d="M-80,93v17a594.682,594.682,0,0,1,80-6,594.67,594.67,0,0,1,80,6V93Z" transform="translate(0 30)" fill="#12526f"/>
      </g>
      <g id="Mask_Group_1" data-name="Mask Group 1" clip-path="url(#clip-path-5)">
        <g id="Nose-3" data-name="Nose" opacity="0.996" clip-path="url(#clip-path-4)">
          <rect id="Nose_Top-2" data-name="Nose Top" width="160" height="93" transform="translate(-80 30)" fill="#de1827"/>
          <path id="Nose_Bottom-2" data-name="Nose Bottom" d="M-80,93v17a594.682,594.682,0,0,1,80-6,594.67,594.67,0,0,1,80,6V93Z" transform="translate(0 30)" fill="#0b2b39"/>
        </g>
      </g>
    </g>
    <g id="Window" transform="translate(152 17)">
      <circle id="Ellipse_1" data-name="Ellipse 1" cx="36" cy="36" r="36" transform="translate(-36 132)" fill="#e3b96a"/>
      <circle id="Ellipse_2" data-name="Ellipse 2" cx="27" cy="27" r="27" transform="translate(-27 141)" fill="#12526f"/>
      <g id="Mask_Group_5" data-name="Mask Group 5" clip-path="url(#clip-path-7)">
        <circle id="Ellipse_7" data-name="Ellipse 7" cx="36" cy="36" r="36" transform="translate(-36 132)" fill="#bc9141"/>
        <circle id="Ellipse_8" data-name="Ellipse 8" cx="27" cy="27" r="27" transform="translate(-27 141)" fill="#062431"/>
      </g>
    </g>
  </g>
</svg>
